<svg width="20" height="21" viewBox="0 0 20 21" fill="none" xmlns="http://www.w3.org/2000/svg">
<g clip-path="url(#clip0_3_100)">
<path d="M19.0001 19.5L13.7617 14.255M15.8334 9.24999C15.8334 11.1286 15.0871 12.9303 13.7588 14.2587C12.4304 15.587 10.6287 16.3333 8.75008 16.3333C6.87146 16.3333 5.06979 15.587 3.74141 14.2587C2.41303 12.9303 1.66675 11.1286 1.66675 9.24999C1.66675 7.37137 2.41303 5.5697 3.74141 4.24132C5.06979 2.91293 6.87146 2.16666 8.75008 2.16666C10.6287 2.16666 12.4304 2.91293 13.7588 4.24132C15.0871 5.5697 15.8334 7.37137 15.8334 9.24999Z" stroke="white" stroke-width="2" stroke-linecap="round"/>
</g>
<defs>
<clipPath id="clip0_3_100">
<rect width="20" height="20" fill="white" transform="translate(0 0.5)"/>
</clipPath>
</defs>
</svg>
