<svg width="28" height="27" viewBox="0 0 28 27" fill="none" xmlns="http://www.w3.org/2000/svg">
<path d="M13.6381 5.02032L11.1491 10.0644L5.58032 10.8738L9.60923 14.8026L8.65737 20.3476L13.6381 17.7293L18.6189 20.3449L17.667 14.7999L21.6959 10.8738L16.1272 10.0644L13.6381 5.02032Z" fill="white"/>
<path d="M24.0823 9.30235L17.3876 8.3294L14.395 2.26231C14.3132 2.0962 14.1788 1.96173 14.0126 1.87999C13.596 1.67433 13.0898 1.84571 12.8815 2.26231L9.88881 8.3294L3.19418 9.30235C3.00961 9.32872 2.84086 9.41573 2.71166 9.54757C2.55547 9.70811 2.4694 9.92409 2.47236 10.1481C2.47533 10.372 2.56709 10.5857 2.72748 10.742L7.57114 15.4644L6.4268 22.1326C6.39996 22.2877 6.41713 22.4473 6.47635 22.5931C6.53557 22.739 6.63447 22.8653 6.76184 22.9579C6.88922 23.0504 7.03996 23.1053 7.19698 23.1165C7.35401 23.1277 7.51103 23.0947 7.65024 23.0212L13.6382 19.873L19.6262 23.0212C19.7897 23.1082 19.9795 23.1372 20.1615 23.1056C20.6203 23.0265 20.9288 22.5914 20.8497 22.1326L19.7053 15.4644L24.549 10.742C24.6808 10.6128 24.7678 10.4441 24.7942 10.2595C24.8654 9.79806 24.5437 9.37091 24.0823 9.30235ZM17.6671 14.7999L18.619 20.3449L13.6382 17.7293L8.65746 20.3476L9.60932 14.8025L5.58041 10.8738L11.1492 10.0644L13.6382 5.02032L16.1273 10.0644L21.696 10.8738L17.6671 14.7999Z" fill="#001EB9"/>
</svg>
